<svg xmlns="http://www.w3.org/2000/svg" viewBox="0 0 512 512" width="40" height="40" role="img" aria-label="Logo Asesmen Pemrograman Oranye 40px">
  <defs>
    <linearGradient id="g1" x1="0" x2="1" y1="0" y2="1">
      <stop offset="0" stop-color="#ff8c00"/>
      <stop offset="1" stop-color="#ffb84d"/>
    </linearGradient>
  </defs>

  <!-- Perisai -->
  <path d="M256 32c-6 0-54 22-90 50-31 24-53 60-58 98-7 53 4 110 45 160 34 40 82 62 103 74 3 2 7 2 10 0 21-12 69-34 103-74 41-50 52-107 45-160-5-38-27-74-58-98-36-28-84-50-90-50z"
        fill="url(#g1)"/>

  <!-- Simbol kode kiri -->
  <path d="M196 180c-6-4-14-2-18 4l-40 56c-4 6-2 14 4 18 6 4 14 2 18-4l40-56c4-6 2-14-4-18z"
        fill="#ffffff" opacity="0.95"/>

  <!-- Simbol kode kanan -->
  <path d="M316 180c6-4 14-2 18 4l40 56c4 6 2 14-4 18-6 4-14 2-18-4l-40-56c-4-6-2-14 4-18z"
        fill="#ffffff" opacity="0.95"/>

  <!-- Slash tengah -->
  <rect x="240" y="172" width="32" height="8" rx="2" transform="rotate(18 256 176)" fill="#ffffff" opacity="0.98"/>

  <!-- Centang -->
  <g transform="translate(360,92) scale(0.9)">
    <circle cx="0" cy="0" r="36" fill="#ffd166"/>
    <path d="M-10 0.5l8 9 18-20" fill="none" stroke="#5a2d0c" stroke-width="6" stroke-linecap="round" stroke-linejoin="round"/>
  </g>
</svg>
